<svg xmlns="http://www.w3.org/2000/svg" xmlns:xlink="http://www.w3.org/1999/xlink" xmlns:inkscape="http://www.inkscape.org/namespaces/inkscape" version="1.1" width="370.13" height="300.98" viewBox="0 0 370.13 300.98">
<defs>
<path id="font_1_34" d="M.1789856 .22842407C.20399475 .23042298 .27398683 .23143006 .30799867 .23143006 .34599305 .23143006 .40098573 .23042298 .4249878 .22842407 .47399903 .097213748 .49699403 .019104004 .5029907-.0029296876 .519989 .000061035159 .5359955 .000061035159 .5529938 .000061035159 .56999209 .000061035159 .59599307 .000061035159 .61299136-.0029296876 .5629883 .098220828 .43099977 .43933106 .33898927 .6582031H.31098939C.21499634 .43632508 .116989139 .2184143 .015991211-.0029296876 .027999878 .000061035159 .039993287 .000061035159 .050994874 .000061035159 .06199646 .000061035159 .083999637 .000061035159 .09599304-.0029296876 .11199951 .058151246 .14299011 .14128113 .1789856 .22842407M.40699769 .27642823C.37399293 .27442933 .33299256 .2734375 .30299378 .2734375 .27398683 .2734375 .22099304 .27542115 .19898987 .27642823L.3039856 .52227786H.30599977C.34700013 .42733766 .37998963 .3453827 .40699769 .27642823Z"/>
<path id="font_1_79" d="M.45999146 .1802063C.45999146 .21224976 .46199037 .24928284 .46199037 .2813263 .46199037 .38545228 .42799378 .43945313 .33799745 .43945313 .2999878 .43945313 .22898865 .42443849 .16499329 .349411L.16299439 .352417V.4245758C.16299439 .4325714 .1619873 .4345703 .15699768 .4345703 .1349945 .43063355 .09899902 .42964173 .07598877 .43164063L.07398987 .42863465C.08099365 .3856659 .08299255 .30973817 .08299255 .23480225V.17984009C.08299255 .104904178 .08198547 .05393982 .07398987 0L.07598877-.0030059815C.08799744-.00093078616 .11099243 .000061035159 .12298584 .000061035159 .1349945 .000061035159 .1579895-.00093078616 .16999817-.0029296876L.17199707 .000061035159C.1639862 .057128908 .16299439 .10417175 .16299439 .18025208V.29736329C.21398926 .35742188 .27198792 .3794403 .30799867 .3794403 .35899354 .3794403 .37998963 .35942079 .37998963 .27835084V.18025208C.37998963 .1051178 .37799073 .05406189 .37098695 0L.37298585-.0030059815C.3849945-.00093078616 .4079895 .000061035159 .41999818 .000061035159 .43199159 .000061035159 .45498658-.00093078616 .46699525-.0029296876L.46899415 .000061035159C.46099855 .05706787 .45999146 .10411072 .45999146 .1802063Z"/>
<path id="font_1_70" d="M.3919983 .104278568C.35699464 .0662384 .30999757 .049224855 .25498963 .049224855 .22099304 .049224855 .17399597 .0622406 .1459961 .106277469 .12799073 .13430786 .12199402 .17533875 .12199402 .23339844H.3939972C.40499879 .23339844 .4119873 .23939514 .4119873 .25039674 .4119873 .33441163 .37098695 .43945313 .23899842 .43945313 .13598633 .43945313 .033996583 .35643006 .033996583 .20936585 .033996583 .15231323 .04598999 .0962677 .07899475 .056228639 .11299133 .0152282719 .17098999-.009765625 .23799134-.009765625 .30999757-.009765625 .37399293 .02722168 .4119873 .07925415L.3919983 .104278568M.125 .27339173C.14199829 .3774414 .20799256 .39944459 .23899842 .39944459 .2789917 .39944459 .32299806 .36242677 .32299806 .2873993 .32299806 .2783966 .31900025 .27339173 .30899049 .27339173H.125Z"/>
<path id="font_1_72" d="M.3899994 .2850952C.3899994 .35430909 .36299134 .38639833 .33999635 .40144349 .36999513 .39944459 .40299989 .39543153 .44400025 .39141847L.44699098 .39442445C.44499208 .40267945 .44400025 .41067506 .44400025 .41967774 .44400025 .42868043 .44499208 .43667604 .44699098 .4456787L.44400025 .4486847C.3959961 .4446869 .36099244 .4336853 .28599549 .4296875 .2679901 .43644715 .24699402 .43945313 .22499085 .43945313 .1459961 .43945313 .054992677 .38639833 .054992677 .28710938 .054992677 .21188355 .09799194 .17778015 .12599182 .16177368 .09700012 .14176941 .06199646 .112838748 .06199646 .07891846 .06199646 .03804016 .085998538 .0021362305 .13999939-.0068359377 .11199951-.018875123 .08099365-.03791809 .054992677-.05796814 .042999269-.07702637 .03199768-.10508728 .03199768-.12413025 .03199768-.2033081 .117996219-.23730469 .22399903-.23730469 .37998963-.23730469 .47299195-.17225647 .47299195-.07801819 .47299195-.033798219 .45899964-.0027313233 .43099977 .021270752 .3939972 .053268434 .32499696 .054275514 .2899933 .054275514 .272995 .054275514 .23298645 .05227661 .20999146 .04927063 .19599915 .04827881 .18598938 .04727173 .18099976 .04727173 .15299988 .04727173 .12298584 .05126953 .12298584 .09402466 .12298584 .11390686 .12799073 .13079834 .1499939 .14978028 .16299439 .14277649 .19400025 .1357727 .22399903 .1357727 .32798768 .1357727 .3899994 .20585633 .3899994 .2850952M.100997928-.104019168C.100997928-.07092285 .1309967-.033798219 .1659851-.01473999 .19599915-.01473999 .24099732-.01171875 .25498963-.01171875 .30299378-.01171875 .33399964-.01272583 .36099244-.028778077 .3899994-.045837404 .3999939-.07493591 .3999939-.10101318 .3999939-.16221619 .31799317-.19430542 .23199463-.19430542 .16699219-.19430542 .100997928-.17224121 .100997928-.104019168M.31199647 .28408814C.31199647 .22291565 .2869873 .17578125 .22698975 .17578125 .15499878 .17578125 .1329956 .22291565 .1329956 .29211427 .1329956 .35832215 .16299439 .40144349 .22099304 .40144349 .28599549 .40144349 .31199647 .3553009 .31199647 .28408814Z"/>
<path id="font_1_66" d="M.30999757 .048233034C.32199098 .009231567 .35099793-.009765625 .3880005-.009765625 .41299439-.009765625 .44400025-.003768921 .46798707 .021224976L.45999146 .04623413C.44898988 .04222107 .44099427 .041229249 .43299867 .041229249 .4229889 .041229249 .4099884 .04222107 .4039917 .048233034 .3939972 .057235719 .3869934 .08224487 .3869934 .12628174 .3869934 .15530396 .3899994 .26635743 .3899994 .27737428 .3899994 .41244508 .30099488 .43945313 .22499085 .43945313 .14898682 .43945313 .102996829 .40245057 .07798767 .3814392L.07499695 .37742616 .09199524 .3103943 .10499573 .3093872C.1329956 .3544159 .16699219 .3944397 .21499634 .3944397 .25099183 .3944397 .31098939 .3894348 .31098939 .2763672 .31098939 .2693634 .30699159 .2653656 .3039856 .26435853L.21099854 .24334717C.10899353 .22033692 .04499817 .16630554 .04499817 .0982666 .04499817 .024230957 .09599304-.009765625 .16999817-.009765625 .22499085-.009765625 .25299073 .0032196046 .30599977 .048233034H.30999757M.30999757 .2253418 .30599977 .10626221C.30599977 .09326172 .2999878 .086257938 .2919922 .08024597 .2639923 .05923462 .22999573 .041229249 .19999695 .041229249 .15499878 .041229249 .12599182 .071243289 .12599182 .102264408 .12599182 .14729309 .14698792 .18132019 .22499085 .20233155L.30999757 .2253418Z"/>
<path id="font_1_85" d="M.09498596 .42871095C.07499695 .42871095 .052993776 .42871095 .040985109 .43070985 .033996583 .41470338 .0289917 .40470887 .018997193 .38970948L.023986817 .3827057C.040985109 .3836975 .07199097 .3847046 .09498596 .3847046V.24787903C.09498596 .18795777 .09199524 .11605835 .09199524 .08610535 .09199524 .0211792 .13398743-.009765625 .17999268-.009765625 .22200012-.009765625 .2539978 .00021362305 .29599 .027175904L.28399659 .052230836C.25299073 .041229249 .22999573 .040222169 .20498657 .04421997 .18099976 .048233034 .17199707 .07218933 .17199707 .12611389 .17199707 .1560669 .1749878 .19898987 .1749878 .25889588V.3847046H.21299744C.23699951 .3847046 .27198792 .3836975 .2849884 .3827057 .28799439 .3986969 .29100038 .40870667 .29699708 .42370606L.2919922 .43070985C.27398683 .42970277 .24499512 .42871095 .22200012 .42871095H.1749878C.1749878 .5037079 .17599488 .5167084 .17999268 .57470706 .17999268 .5817108 .1769867 .58470156 .17098999 .58470156 .1459961 .57470706 .13398743 .56469729 .100997928 .55970767L.09899902 .55670168C.09700012 .521698 .09498596 .4867096 .09498596 .42871095Z"/>
<path id="font_1_74" d="M.08999634 .23478699V.17984009C.08999634 .104904178 .08799744 .05393982 .08099365 0L.08299255-.0030059815C.09498596-.0009460449 .117996219 .000061035159 .12998963 .000061035159 .14199829 .000061035159 .16499329-.0009460449 .1769867-.0029296876L.1789856 .000061035159C.17199707 .057006837 .16999817 .10395813 .16999817 .1798706V.25079347C.16999817 .3257141 .17298889 .36167909 .1789856 .42262269 .1789856 .4316101 .17799378 .4326172 .16999817 .4326172 .14698792 .4306183 .10398865 .4296112 .08299255 .4316101L.08099365 .42861939C.08699036 .38565064 .08999634 .3097229 .08999634 .23478699M.07998657 .59742739C.07998657 .5704346 .10398865 .5464325 .1309967 .5464325 .1579895 .5464325 .18199158 .5704346 .18199158 .59742739 .18199158 .6244354 .1579895 .6484375 .1309967 .6484375 .10398865 .6484375 .07998657 .6244354 .07998657 .59742739Z"/>
<path id="font_1_87" d="M.20199585-.0029296876C.21199036 .000061035159 .22299195 .000061035159 .23298645 .000061035159 .24299622 .000061035159 .2539978 .000061035159 .2630005-.0029296876 .31498719 .14291382 .3769989 .28477479 .44198609 .43164063 .43299867 .42863465 .4139862 .42863465 .4039917 .42863465 .3939972 .42863465 .3789978 .42863465 .36999513 .43164063 .32998658 .31877137 .29499818 .1879425 .24899292 .09005737H.24699402C.19699097 .20492554 .1639862 .31677247 .12799073 .43164063 .114990238 .42863465 .09199524 .42863465 .07798767 .42863465 .06199646 .42863465 .035995485 .42863465 .019989014 .43164063 .08699036 .28477479 .1459961 .14291382 .20199585-.0029296876Z"/>
<path id="font_1_89" d="M.18499756 .2068634 .027999878-.0029296876C.037994386-.0009460449 .053985597 .000061035159 .06399536 .000061035159 .07398987 .000061035159 .09799194-.0009460449 .10798645-.0029296876 .1459961 .054000856 .17599488 .108947757 .21598816 .16490174 .2559967 .108947757 .28599549 .054000856 .32199098-.0029296876 .33699037-.0009460449 .35699464 .000061035159 .37298585 .000061035159 .3880005 .000061035159 .4149933-.0009460449 .42999269-.0029296876 .36999513 .07498169 .32099916 .1519165 .2669983 .22982788L.43099977 .43164063C.41799928 .42964173 .3959961 .42863465 .38598634 .42863465 .375 .42863465 .3600006 .42964173 .34899903 .43164063 .31098939 .37568666 .2789917 .32273866 .23699951 .26879884 .19699097 .32273866 .16999817 .37568666 .13598633 .43164063 .11898804 .42964173 .09899902 .42863465 .08198547 .42863465 .06599426 .42863465 .039993287 .42964173 .023986817 .43164063L.18499756 .2068634Z"/>
<path id="font_1_83" d="M.16699219 .33441163V.4245758C.16699219 .4325714 .1659851 .4345703 .16099549 .4345703 .13899231 .43063355 .102996829 .42964173 .07998657 .43164063L.07798767 .42863465C.084991458 .3856659 .08699036 .30973817 .08699036 .23480225V.17984009C.08699036 .104904178 .085998538 .05393982 .07798767 0L.07998657-.0030059815C.09199524-.00093078616 .114990238 .000061035159 .1269989 .000061035159 .13899231 .000061035159 .1619873-.00093078616 .17399597-.0029296876L.17599488 .000061035159C.16899109 .057128908 .16699219 .10417175 .16699219 .18025208V.2322998C.16699219 .27435304 .17999268 .29837037 .20098877 .33140565 .21598816 .35342408 .23799134 .36643983 .25698854 .36643983 .2769928 .36643983 .29599 .36444093 .30899049 .35243226L.31698609 .35443116 .33699037 .42845155 .33299256 .43244935C.31599427 .43743897 .31498719 .43945313 .29699708 .43945313 .24299622 .43945313 .21398926 .40844728 .16999817 .33239747L.16699219 .33441163Z"/>
<path id="font_1_77" d="M.08999634 .20005799C.08999634 .1260376 .08898926 .054016115 .08099365 0L.08299255-.0030059815C.09498596-.00093078616 .117996219 .000061035159 .12998963 .000061035159 .14199829 .000061035159 .16499329-.00093078616 .1769867-.0029296876L.1789856 .000061035159C.17098999 .05708313 .16999817 .12509156 .16999817 .20011902V.5001831C.16999817 .5751953 .17399597 .6252136 .1789856 .6882324 .1789856 .6952362 .17599488 .6982422 .16999817 .6982422 .14498902 .6882324 .12399292 .68122866 .08299255 .67822268L.08099365 .67523196C.08898926 .6322174 .08999634 .558197 .08999634 .48217774V.20005799Z"/>
<path id="font_1_90" d="M.027999878 .43164063C.067993167 .3426361 .18699646 .08465576 .22200012-.0103302 .18998719-.08532715 .14898682-.162323 .10398865-.23730469 .11399841-.23431397 .1289978-.23231507 .13899231-.23231507 .14898682-.23231507 .17799378-.23431397 .18798828-.23730469 .22599793-.11231995 .44499208 .36463929 .47799684 .43164063 .46798707 .42863465 .44499208 .42863465 .43499757 .42863465 .4249878 .42863465 .4059906 .42863465 .3959961 .43164063 .3600006 .31863404 .31298829 .19064331 .2649994 .08766174H.2630005C.21398926 .20664978 .1659851 .3176422 .1289978 .43164063 .115997318 .42863465 .09399414 .42863465 .07998657 .42863465 .066986087 .42863465 .041992189 .42863465 .027999878 .43164063Z"/>
<path id="font_1_68" d="M.25 .39944459C.2889862 .39944459 .32398988 .37142945 .34999085 .32540895L.36299134 .32640077 .38598634 .40844728 .38398744 .411438C.35299684 .42744447 .30099488 .43945313 .25099183 .43945313 .14698792 .43945313 .037994386 .3544159 .037994386 .21833802 .037994386 .07925415 .116989139-.009765625 .23899842-.009765625 .29899598-.009765625 .34599305 .010223389 .38598634 .06123352L.36698915 .08226013H.36299134C.32499696 .048233034 .29299928 .040222169 .2559967 .040222169 .18299866 .040222169 .12599182 .10626221 .12599182 .2233429 .12599182 .33340455 .18399048 .39944459 .25 .39944459Z"/>
<path id="font_1_86" d="M.36499024 .092163089 .36898805 .089157108 .37399293 .000061035159C.37399293-.0019378662 .375-.0029296876 .37799073-.0029296876 .3909912-.0009460449 .40299989 .000061035159 .41799928 .000061035159 .42999269 .000061035159 .44898988-.0009460449 .46199037-.0029296876L.46398927 .000061035159C.45599366 .043029787 .44699098 .11695862 .44699098 .19189453V.24885559C.44699098 .3237915 .44799806 .37574769 .45599366 .42871095L.45399476 .43170167C.44198609 .42964173 .4189911 .42863465 .40699769 .42863465 .394989 .42863465 .37199403 .42964173 .3600006 .43164063L.35798646 .42863465C.3659973 .37173463 .36698915 .32479859 .36698915 .24891663V.15106201C.33699037 .10014343 .2789917 .04623413 .22999573 .04623413 .19599915 .04623413 .16299439 .0572052 .16299439 .15007019V.24891663C.16299439 .32385255 .1639862 .3757782 .17199707 .42871095L.16999817 .43170167C.1579895 .42964173 .1349945 .42863465 .12298584 .42863465 .11099243 .42863465 .08799744 .42964173 .07598877 .43164063L.07398987 .42863465C.08198547 .37173463 .08299255 .32479859 .08299255 .24891663V.12910462C.08299255 .06021118 .114990238-.009765625 .21398926-.009765625 .27598573-.009765625 .33198548 .041229249 .36499024 .092163089Z"/>
<path id="font_1_84" d="M.049987794 .10127258 .032989503 .017227173C.08999634-.0027770997 .1459961-.009765625 .18399048-.009765625 .32199098-.009765625 .35398866 .072250369 .35398866 .12728882 .35398866 .20933533 .2889862 .24134827 .21798706 .25836183 .17999268 .2673645 .125 .28637696 .125 .33641053 .125 .3774414 .1579895 .39944459 .20098877 .39944459 .25299073 .39944459 .2849884 .35842896 .30799867 .33140565L.32199098 .33241273 .34199525 .40644837 .33999635 .4094391C.31098939 .42443849 .2559967 .43945313 .20498657 .43945313 .1309967 .43945313 .053985597 .40045167 .053985597 .31739808 .053985597 .23735047 .11399841 .21133423 .17399597 .19432068 .23199463 .17831421 .2749939 .16230774 .2749939 .11328125 .2749939 .0602417 .23599243 .030227662 .18299866 .030227662 .1349945 .030227662 .09298706 .06324768 .06498718 .102264408L.049987794 .10127258Z"/>
<path id="font_1_73" d="M.16999817 .352417V.50138857C.16999817 .57533267 .17399597 .6272888 .1789856 .6882477 .1789856 .6952362 .17599488 .6982422 .16999817 .6982422 .14498902 .6882477 .12399292 .6812439 .08299255 .6782532L.08099365 .6752472C.08898926 .6322937 .08999634 .5573425 .08999634 .4814148V.1802063C.08999634 .10612488 .08898926 .05606079 .08099365 0L.08299255-.0030059815C.09498596-.00093078616 .117996219 .000061035159 .12998963 .000061035159 .14199829 .000061035159 .16499329-.00093078616 .1769867-.0029296876L.1789856 .000061035159C.17199707 .057128908 .16999817 .10417175 .16999817 .18025208V.29736329C.22099304 .35742188 .27999879 .3794403 .31498719 .3794403 .3659973 .3794403 .3869934 .35942079 .3869934 .27835084V.18025208C.3869934 .1051178 .38598634 .05406189 .37799073 0L.37998963-.0030059815C.3919983-.00093078616 .4149933 .000061035159 .4269867 .000061035159 .43899537 .000061035159 .46199037-.00093078616 .47399903-.0029296876L.47599793 .000061035159C.46798707 .057128908 .46699525 .10417175 .46699525 .18025208 .46699525 .21228028 .46899415 .24931336 .46899415 .28134156 .46899415 .38545228 .43499757 .43945313 .34498597 .43945313 .30699159 .43945313 .23599243 .42443849 .17199707 .349411L.16999817 .352417Z"/>
<path id="font_1_78" d="M.1619873 .352417V.4245758C.1619873 .4325714 .16099549 .4345703 .1559906 .4345703 .13398743 .43063355 .09799194 .42964173 .07499695 .43164063L.07299805 .42863465C.07998657 .3856659 .08198547 .30973817 .08198547 .23480225V.17984009C.08198547 .104904178 .08099365 .05393982 .07299805 0L.07499695-.0030059815C.08699036-.00093078616 .10998535 .000061035159 .12199402 .000061035159 .13398743 .000061035159 .15699768-.00093078616 .16899109-.0029296876L.17098999 .000061035159C.16299439 .057128908 .1619873 .10417175 .1619873 .18025208V.30136109C.20899964 .349411 .2649994 .3794403 .2999878 .3794403 .33799745 .3794403 .3659973 .35742188 .3659973 .2903595V.18025208C.3659973 .1051178 .36499024 .05406189 .35699464 0L.35899354-.0030059815C.37098695-.00093078616 .3939972 .000061035159 .4059906 .000061035159 .41799928 .000061035159 .44099427-.00093078616 .45298768-.0029296876L.45498658 .000061035159C.44699098 .057128908 .44599916 .10417175 .44599916 .18025208V.28134156C.44599916 .29536439 .44599916 .30737306 .44499208 .3193817 .49299623 .37243653 .5329895 .3794403 .57199099 .3794403 .6259918 .3794403 .6519928 .35742188 .6519928 .2903595V.18025208C.6519928 .1051178 .651001 .05406189 .6429901 0L.644989-.0030059815C.6569977-.00093078616 .6799927 .000061035159 .69200137 .000061035159 .70399478 .000061035159 .72698977-.00093078616 .7389984-.0029296876L.7409973 .000061035159C.73298647 .057128908 .7319946 .10417175 .7319946 .18025208V.28034974C.7319946 .36943055 .71598818 .43945313 .60798647 .43945313 .55400088 .43945313 .49598695 .42044068 .43899537 .36042787 .42999269 .40844728 .3889923 .43945313 .33299256 .43945313 .2709961 .43945313 .21199036 .39944459 .16499329 .349411L.1619873 .352417Z"/>
<path id="font_1_76" d="M.08999634 .19995117C.08999634 .1259613 .08898926 .053985597 .08099365 0L.08299255-.0030059815C.09498596-.00093078616 .117996219 .000061035159 .12998963 .000061035159 .14199829 .000061035159 .16499329-.00093078616 .1769867-.0029296876L.1789856 .000061035159C.17098999 .057037355 .16999817 .125 .16999817 .19995117V.20996094C.17799378 .20996094 .20199585 .20695496 .21099854 .19895935 .27598573 .1309967 .2999878 .09501648 .36799623-.0029296876 .3829956-.00093078616 .4169922 .000061035159 .43399049 .000061035159 .45098878 .000061035159 .4850006-.00093078616 .49398805-.0029296876L.49598695 .000061035159C.42199708 .07902527 .36799623 .1230011 .272995 .23796082 .31199647 .27890016 .4099884 .3737793 .47499085 .42871095L.47299195 .43170167C.45399476 .42871095 .39898683 .42871095 .37199403 .42871095 .32899476 .36679078 .2539978 .28588868 .21398926 .2549286 .20098877 .24494934 .18299866 .24095154 .16999817 .23995972V.4998474C.16999817 .57499697 .17399597 .62509158 .1789856 .68821719 .1789856 .69522097 .17599488 .6982422 .16999817 .6982422 .14498902 .68821719 .12399292 .6811981 .08299255 .67819216L.08099365 .67518618C.08898926 .6321106 .08999634 .5579529 .08999634 .48181153V.19995117Z"/>
<path id="font_1_80" d="M.037994386 .20533753C.037994386 .08526611 .116989139-.009765625 .25-.009765625 .38198854-.009765625 .46199037 .08325195 .46199037 .21434021 .46199037 .3504181 .3889923 .43945313 .2539978 .43945313 .12298584 .43945313 .037994386 .3474121 .037994386 .20533753M.24699402 .39944459C.35299684 .39944459 .37399293 .31739808 .37399293 .19631958 .37399293 .10127258 .32598878 .030227662 .25898744 .030227662 .15299988 .030227662 .12599182 .14529419 .12599182 .22233582 .12599182 .3093872 .15299988 .39944459 .24699402 .39944459Z"/>
<path id="font_1_81" d="M.1619873 .352417V.4245758C.1619873 .4325714 .16099549 .4345703 .1559906 .4345703 .13398743 .43063355 .09799194 .42964173 .07499695 .43164063L.07299805 .42863465C.07998657 .3856964 .08198547 .30981446 .08198547 .23492432V-.031845094C.08198547-.10606384 .07998657-.17826844 .07299805-.23242188L.07499695-.23542786C.08699036-.23335266 .10998535-.23234558 .12199402-.23234558 .13398743-.23234558 .15699768-.23335266 .16899109-.23535156L.17098999-.23234558C.1639862-.17520142 .1619873-.10702515 .1619873-.031829835V.01222229C.18798828-.0017700195 .22499085-.009765625 .26098634-.009765625 .3929901-.009765625 .47299195 .09025574 .47299195 .23135376 .47299195 .3374176 .41099549 .43945313 .29899598 .43945313 .2599945 .43945313 .20999146 .41944886 .1639862 .349411L.1619873 .352417M.1619873 .29438783C.18399048 .3474121 .24299622 .39344789 .28199769 .39344789 .34999085 .39344789 .3849945 .33140565 .3849945 .21833802 .3849945 .1362915 .3619995 .030227662 .25498963 .030227662 .23899842 .030227662 .19699097 .034225465 .1619873 .07525635V.29438783Z"/>
<path id="font_1_69" d="M.36099244 .058242799H.36299134L.36799623 .000061035159C.36799623-.0019378662 .37098695-.0029296876 .3769989-.0029296876 .3899994-.00093078616 .39698792 .000061035159 .4119873 .000061035159 .42399598 .000061035159 .44299317-.00093078616 .45599366-.0029296876L.45799256 .000061035159C.44999696 .04310608 .44099427 .11717224 .44099427 .19224549V.5003967C.44099427 .5743408 .44499208 .626297 .44999696 .6882477 .44999696 .6952362 .44699098 .6982422 .44099427 .6982422 .41600038 .6882477 .394989 .6812439 .35398866 .6782532L.35198976 .6752472C.3600006 .6322937 .36099244 .5583496 .36099244 .48240663V.41744996C.33799745 .43045045 .29699708 .43945313 .2769928 .43945313 .14698792 .43945313 .050994874 .34939576 .050994874 .2132721 .050994874 .09025574 .12399292-.009765625 .23199463-.009765625 .27999879-.009765625 .32499696 .01222229 .36099244 .058242799M.36099244 .11326599C.32499696 .06724548 .2789917 .04222107 .23799134 .04222107 .18399048 .04222107 .13798523 .09625244 .13798523 .221344 .13798523 .37142945 .21798706 .39944459 .2659912 .39944459 .31298829 .39944459 .33699037 .3794403 .36099244 .3414154V.11326599Z"/>
<path id="font_2_2245" d="M.5799866 .031219483C.6859894 .08622742 .746994 .19421387 .746994 .32920838 .746994 .5272064 .6100006 .6582031 .39698792 .6582031 .19400025 .6582031 .051986696 .50619509 .051986696 .31021119 .051986696 .1222229 .19999695-.009765625 .397995-.009765625 .42799378-.009765625 .45599366-.0067749025 .48199464-.0017700195 .61099246-.08477783 .7449951-.15377808 .9249878-.20378113 .94400027-.18876648 .9830017-.13677979 1.0189972-.117767337V-.11177063C.84298709-.089767459 .673996-.023773194 .5799866 .031219483M.38398744 .6031952C.5249939 .6031952 .58599856 .51820376 .58599856 .31021119 .58599856 .13122559 .5319977 .04522705 .41799928 .04522705 .2979889 .04522705 .21299744 .13522339 .21299744 .32720948 .21299744 .5372009 .28799439 .6031952 .38398744 .6031952Z"/>
<path id="font_2_86" d="M.37199403 .06399536H.37399293L.3789978 .000061035159C.3789978-.0019378662 .38198854-.0029296876 .3880005-.0029296876 .40098573-.0009460449 .43099977 .000061035159 .44599916 .000061035159 .45799256 .000061035159 .5059967-.0009460449 .5189972-.0029296876L.5209961 .000061035159C.5130005 .043014528 .5039978 .11694336 .5039978 .19186402V.24880982C.5039978 .32374574 .5039978 .37568666 .5130005 .42863465L.5119934 .43164063C.5119934 .43164063 .46998597 .42863465 .43499757 .42863465 .40098573 .42863465 .36698915 .43164063 .36698915 .43164063L.36499024 .42863465C.37199403 .37269593 .37199403 .32473756 .37199403 .24880982V.16889954C.37199403 .11116028 .30499269 .067230228 .2599945 .067230228 .22999573 .067230228 .20098877 .07720947 .20298767 .15907288L.20498657 .24893189C.20698548 .32380677 .20799256 .37771607 .21299744 .42863465L.21199036 .43164063C.21199036 .43164063 .17199707 .42863465 .13699341 .42863465 .102996829 .42863465 .066986087 .43164063 .066986087 .43164063L.06498718 .42863465C.070999149 .37173463 .07398987 .32081605 .07299805 .24893189L.070999149 .12612915C.069992069 .05722046 .10499573-.009765625 .20399475-.009765625 .24499512-.009933472 .31599427 .004058838 .37199403 .06399536Z"/>
<path id="font_2_66" d="M.43699647 .08024597C.43699647 .10926819 .44099427 .26637269 .44099427 .27737428 .44099427 .3374176 .42900086 .37443543 .40098573 .39944459 .36898805 .42845155 .30899049 .43945313 .26098634 .43945313 .18899536 .43945313 .09298706 .4074402 .068984989 .3864441L.06599426 .3824463 .085998538 .3073883 .11898804 .30639649C.15299988 .35643006 .19699097 .38545228 .24198914 .38545228 .28599549 .38545228 .31098939 .36042787 .31098939 .28338624 .31098939 .27638246 .30799867 .27236939 .30499269 .27137757L.18798828 .24035645C.09199524 .21733094 .033996583 .16630554 .033996583 .09825134 .033996583 .029220581 .100997928-.009765625 .17098999-.009765625 .20999146-.009765625 .2630005 .0032196046 .30799867 .048233034H.30999757C.32398988 .007232666 .34599305-.009765625 .3889923-.009765625 .42799378-.009765625 .47799684 .00022888184 .5079956 .023223877 .5069885 .032226564 .5039978 .039230348 .49798585 .04421997 .45799256 .04421997 .43699647 .047225954 .43699647 .08024597M.31098939 .22233582 .30899049 .12927246C.30899049 .11627197 .30099488 .09124756 .2939911 .084243778 .2709961 .06123352 .24798584 .050231935 .21998596 .050231935 .18998719 .050231935 .16799927 .08024597 .16799927 .10726929 .16799927 .14329529 .18099976 .18832398 .23098755 .20132447L.31098939 .22233582Z"/>
<path id="font_2_79" d="M.5119934 .17980957V.29071046C.5119934 .3964386 .46299745 .43945313 .37298585 .43945313 .32199098 .43945313 .2619934 .40844728 .21598816 .34942628L.21199036 .35243226C.21199036 .37461854 .21099854 .4165802 .20899964 .4245758 .20799256 .43156434 .20599365 .4345703 .19999695 .4345703 .17098999 .42964173 .10598755 .42964173 .070999149 .43164063L.068984989 .42863465C.07699585 .3856659 .07998657 .30973817 .07998657 .23480225V.17984009C.07998657 .104904178 .07798767 .05393982 .068984989 0L.070999149-.0030059815C.070999149-.0030059815 .117996219 0 .15299988 0 .18699646 0 .21499634-.0030059815 .21499634-.0030059815L.21798706 0C.21299744 .05706787 .21199036 .10412598 .21199036 .18022156V.28234864C.25 .33241273 .2919922 .36244203 .32798768 .36244203 .35499574 .36244203 .37998963 .3424225 .37998963 .2693329V.18022156C.37998963 .1051178 .37998963 .05305481 .37399293 0L.37599183-.0030059815C.37599183-.0030059815 .4079895 0 .44299317 0 .47698976 0 .5209961-.0030059815 .5209961-.0030059815L.522995 0C.5139923 .056930543 .5119934 .103897098 .5119934 .17980957Z"/>
<path id="font_2_85" d="M.08999634 .42871095C.069992069 .42863465 .04798889 .42964173 .035995485 .43164063 .0309906 .41470338 .023986817 .3986969 .01399231 .3836975L.018997193 .37670899C.035995485 .3777008 .066986087 .3787079 .08999634 .3787079L.08699036 .26089479C.085998538 .20098877 .083999637 .118118289 .083999637 .08816528 .083999637 .041229249 .116989139-.009765625 .18099976-.009765625 .23298645-.009765625 .2849884-.00077819827 .32798768 .025222779 .32798768 .041229249 .32199098 .05621338 .31098939 .063201908 .2889862 .052230836 .2789917 .051223756 .25299073 .051223756 .22599793 .051223756 .21598816 .090164188 .21598816 .13110352 .21598816 .13310242 .21598816 .13609314 .21598816 .13809204 .21598816 .16903687 .21598816 .21595764 .21699524 .2718811L.21899414 .3787079H.25698854C.2809906 .3787079 .31599427 .3777008 .32899476 .37670899 .33099366 .39169313 .33499146 .4086609 .34098817 .42364503L.33599855 .43164063C.31698609 .42970277 .2889862 .42871095 .2659912 .42871095H.21899414C.21899414 .4847107 .21998596 .5147095 .22399903 .56770327 .22399903 .57470706 .22099304 .57769778 .21499634 .57769778 .18998719 .56770327 .13598633 .5417023 .09599304 .5326996L.09399414 .52970889C.09098816 .5027008 .08999634 .46870423 .08999634 .42871095Z"/>
<path id="font_2_74" d="M.08999634 .23477173V.17982483C.08999634 .104888919 .08799744 .05393982 .07998657 0L.08198547-.0030059815C.102996829-.0009460449 .12098694 .000061035159 .1559906 .000061035159 .18998719 .000061035159 .21099854-.0009460449 .22999573-.0029296876L.23199463 .000061035159C.22399903 .056991579 .22200012 .10394287 .22200012 .1798706V.24578858C.22200012 .32070924 .22599793 .36366273 .23199463 .42359925 .23199463 .43058778 .22898865 .43359376 .22299195 .43359376 .20899964 .43170167 .18199158 .42871095 .1539917 .42871095 .12799073 .42871095 .100997928 .43070985 .08299255 .43170167L.07998657 .42770387C.08799744 .3846283 .08999634 .30970765 .08999634 .23477173M.084991458 .606781C.084991458 .56877139 .115997318 .53778079 .1559906 .53778079 .19599915 .53778079 .22698975 .56877139 .22698975 .606781 .22698975 .6447754 .19599915 .67578127 .1559906 .67578127 .115997318 .67578127 .084991458 .6447754 .084991458 .606781Z"/>
<path id="font_2_90" d="M.019989014 .43164063C.06498718 .34075929 .1769867 .109069827 .21499634 .00920105L.22698975-.009765625C.19499207-.08494568 .15098572-.1621399 .10598755-.23730469 .115997318-.2342987 .1599884-.2322998 .16999817-.2322998 .17999268-.2322998 .20899964-.2342987 .21899414-.23730469 .25698854-.11201477 .48599244 .36473084 .5189972 .43164063 .5089874 .42863465 .47999574 .42863465 .46998597 .42863465 .45999146 .42863465 .4229889 .42863465 .41299439 .43164063 .3809967 .33177186 .34098817 .21992493 .2979889 .124053958L.2889862 .12504578C.24299622 .22790528 .20399475 .32977296 .17098999 .43164063 .1579895 .42863465 .12199402 .42863465 .10798645 .42863465 .09498596 .42863465 .033996583 .42863465 .019989014 .43164063Z"/>
<path id="font_2_49" d="M.09298706 .44525147V.20013428C.09298706 .12512207 .08898926 .054092409 .08099365 .000061035159L.08198547-.0029296876C.08198547-.0030059815 .12998963 0 .16499329 0 .19898987 0 .24499512-.0030059815 .24499512-.0030059815L.24699402 0C.23899842 .057037355 .23498535 .1250763 .23498535 .20013428V.28419496C.25698854 .27719117 .2899933 .27418519 .32499696 .27418519 .5069885 .27418519 .57299807 .3832245 .57299807 .4862671 .57299807 .5222931 .5589905 .57933047 .5029907 .6183319 .46798707 .64334109 .41299439 .65234377 .34199525 .65234377 .31599427 .65234377 .19499207 .64533999 .16499329 .64533999 .1309967 .64533999 .08299255 .6483307 .08299255 .6483307L.08099365 .64533999C.08898926 .58833315 .09298706 .5202942 .09298706 .44525147M.23498535 .560318C.23498535 .58932498 .24299622 .6043396 .31498719 .6043396 .37399293 .6043396 .42199708 .58732607 .42199708 .46826173 .42199708 .36720277 .37199403 .3251953 .31399537 .3251953 .2889862 .3251953 .24798584 .32818605 .23498535 .33518983V.560318Z"/>
<path id="font_2_83" d="M.22499085 .34934999 .22099304 .35235597C.22099304 .37461854 .21998596 .4165802 .21798706 .4245758 .21699524 .43156434 .21499634 .4345703 .20899964 .4345703 .17999268 .42964173 .114990238 .42964173 .07998657 .43164063L.07798767 .42863465C.085998538 .38568116 .08898926 .30975343 .08898926 .23483277V.17988587C.08898926 .10494995 .08699036 .054000856 .07899475 .000061035159L.07998657-.0029296876C.07998657-.0030059815 .11199951 0 .14698792 0 .18099976 0 .22898865-.0030059815 .22898865-.0030059815L.23098755 0C.22299195 .056915285 .22099304 .10386658 .22099304 .1797638V.2526703C.22099304 .32957459 .2899933 .341568 .30499269 .341568 .32398988 .34243775 .34498597 .33744813 .36299134 .32344056L.3809967 .32543946 .40098573 .42845155 .39698792 .43244935C.37998963 .43743897 .3639984 .43945313 .34599305 .43945313 .29899598 .43945313 .25099183 .38839723 .22499085 .34934999Z"/>
<path id="font_2_68" d="M.29699708 .38945008C.33599855 .38945008 .36499024 .36042787 .3869934 .3053894L.4149933 .30639649 .43899537 .40344239 .43699647 .40644837C.4059906 .42243959 .33799745 .43945313 .28799439 .43945313 .1539917 .43945313 .041992189 .35942079 .041992189 .20233155 .041992189 .1402893 .06199646 .09126282 .09599304 .054229738 .13198853 .0152282719 .19898987-.009765625 .27398683-.009765625 .34999085-.009765625 .3939972 .006225586 .43899537 .04423523 .43699647 .054229738 .43399049 .06724548 .43399049 .08325195L.41799928 .088256839C.3899994 .054229738 .34098817 .040222169 .30099488 .040222169 .27198792 .040222169 .23199463 .06524658 .21398926 .09425354 .19599915 .12327576 .18399048 .17131043 .18399048 .22834778 .18399048 .27638246 .19198609 .3143921 .20799256 .3414154 .22799683 .37243653 .2619934 .38945008 .29699708 .38945008Z"/>
<path id="font_2_70" d="M.44799806 .10714722C.4019928 .07022095 .35299684 .066223148 .31098939 .066223148 .2619934 .066223148 .22599793 .079208377 .20199585 .105148319 .17999268 .12910462 .16899109 .16404724 .16899109 .20996094H.2689972C.36898805 .20996094 .45399476 .20796204 .45399476 .20796204L.45999146 .21395874C.45999146 .33926393 .4249878 .43945313 .2709961 .43945313 .21598816 .43945313 .1559906 .42243959 .116989139 .38945008 .067993167 .3493042 .034988405 .28907777 .034988405 .20596314 .034988405 .14707947 .056991579 .08518982 .09799194 .04222107 .13198853 .007232666 .19099427-.009765625 .2659912-.009765625 .33799745-.009765625 .4099884 .01322937 .46398927 .07620239 .46398927 .08918762 .45799256 .10714722 .44799806 .10714722M.17298889 .2549591C.1769867 .30413819 .18899536 .33926393 .20399475 .35932923 .21598816 .3764038 .23599243 .38945008 .2639923 .38945008 .30499269 .38945008 .32899476 .34327699 .32899476 .2549591H.17298889Z"/>
<path id="font_3_17" d="M.22799683-.009765625C.30499269-.009765625 .42199708 .068237308 .42199708 .3032837 .42199708 .40231324 .397995 .48731996 .35398866 .54533389 .32798768 .5803375 .28599549 .61035159 .23199463 .61035159 .1329956 .61035159 .038986207 .49232484 .038986207 .294281 .038986207 .18725586 .07199097 .0872345 .1269989 .032226564 .15499878 .0042266848 .18899536-.009765625 .22799683-.009765625M.23199463 .5753479C.24899292 .5753479 .2649994 .56933596 .2769928 .55833438 .30799867 .5323334 .33499146 .4563141 .33499146 .32229615 .33499146 .23027039 .33198548 .16725159 .31799317 .116241458 .29599 .034225465 .24699402 .025222779 .22898865 .025222779 .13598633 .025222779 .12599182 .19625855 .12599182 .28327943 .12599182 .5293274 .18699646 .5753479 .23199463 .5753479Z"/>
<path id="font_1_37" d="M.14698792 .6454315C.11299133 .6454315 .09599304 .6484375 .09599304 .6484375L.09399414 .6454315C.101989749 .5884094 .10398865 .5203705 .10398865 .4453125V.20014954C.10398865 .12509156 .101989749 .05404663 .09399414 .000045776369L.09498596-.002960205C.09498596-.002960205 .11199951 .000045776369 .14698792 .000045776369 .21798706 .000045776369 .22698975-.001953125 .32998658-.001953125 .47099305-.001953125 .6579895 .062057496 .6579895 .30822755 .6579895 .49435426 .5039978 .6484375 .31199647 .6484375 .24798584 .6484375 .21099854 .6454315 .14698792 .6454315M.18998719 .08206177V.5643921C.18998719 .59942629 .22499085 .60443118 .27398683 .60443118 .48999024 .60443118 .5549927 .43830873 .5549927 .2842102 .5549927 .08206177 .43998719 .042037965 .29899598 .042037965 .20098877 .042037965 .18998719 .050048829 .18998719 .08206177Z"/>
<path id="font_1_52" d="M.24198914 .034225465C.18598938 .034225465 .11399841 .083221439 .08299255 .14222718L.07299805 .1412201C.068984989 .10522461 .057998659 .068222049 .049987794 .038223268L.051986696 .035232545C.051986696 .035232545 .116989139-.009765625 .23399353-.009765625 .35699464-.009765625 .45199586 .06523132 .45199586 .18121338 .45199586 .2972107 .35398866 .35121156 .272995 .38121034 .22200012 .40020753 .15098572 .42919923 .15098572 .5121918 .15098572 .5482025 .17098999 .5881958 .19699097 .6021881 .21398926 .6111908 .23498535 .6141968 .2579956 .6141968 .31298829 .6141968 .36698915 .5711975 .3939972 .50920107L.4039917 .5101929C.4079895 .54634097 .41799928 .5803375 .4269867 .61035159L.4249878 .6133423C.4249878 .6131897 .3829956 .6582031 .2659912 .6582031 .23899842 .6582031 .20899964 .65319827 .17999268 .6411896 .12098694 .6161957 .069992069 .558197 .069992069 .48519898 .069992069 .38020326 .15899658 .33120729 .24198914 .29621888 .30699159 .26921083 .35899354 .23622132 .35899354 .1512146 .35899354 .07621765 .30099488 .034225465 .24198914 .034225465Z"/>
<path id="font_3_2732" d="M.05999756-.12815857C.050994874-.1361084 .042999269-.14404297 .036987306-.15298462L.069992069-.17298889C.084991458-.1559906 .099990848-.14007569 .115997318-.12617493 .1309967-.117248538 .14399719-.11425781 .1519928-.11425781 .24099732-.11425781 .2829895-.20898438 .4079895-.20898438 .46798707-.20898438 .5139923-.18299866 .56199648-.12716675L.5479889-.11526489C.5219879-.14205933 .4850006-.1519928 .45700074-.1519928 .37298585-.1519928 .31098939-.07026672 .20498657-.07026672 .19898987-.07026672 .19299317-.07026672 .18598938-.071258548 .24398804-.03300476 .2979889-.011856079 .33099366-.0038146973 .48199464 .026184082 .59799197 .15419007 .6319885 .32919313 .6369934 .3551941 .6389923 .380188 .6389923 .40319825 .6389923 .5592041 .5339966 .6582031 .3880005 .6582031 .21699524 .6582031 .06599426 .50619509 .027999878 .31019593 .022994996 .28318788 .019989014 .25819398 .019989014 .2341919 .019989014 .095184329 .10398865 .0071868898 .22698975-.0078125 .1639862-.03904724 .101989749-.086257938 .05999756-.12815857M.36898805 .6241913C.47698976 .6241913 .5499878 .5522003 .5499878 .41018678 .5499878 .380188 .5469971 .34718324 .5399933 .31019593 .5049896 .13117981 .3999939 .02418518 .2899933 .02418518 .19299317 .02418518 .11099243 .10317993 .11099243 .2441864 .11099243 .27018739 .11399841 .29719544 .11999512 .3271942 .1599884 .5372009 .28199769 .6241913 .36898805 .6241913Z"/>
<path id="font_3_2093" d="M.07598877 .2748413C.099990848 .26783753 .19299317 .26683045 .23098755 .25382997 .20799256 .22183228 .13598633 .16383362 .12098694 .14382935 .09298706 .10482788 .15098572 .059829713 .17999268 .10083008 .19499207 .12083435 .22499085 .20983887 .24798584 .24183655 .27198792 .20983887 .30499269 .12384033 .31900025 .10282898 .34899903 .06283569 .40699769 .10684204 .37799073 .14582825 .3639984 .1668396 .2889862 .22183228 .2649994 .25382997 .30299378 .26683045 .394989 .27183534 .4189911 .2788391 .46699525 .29483033 .44299317 .36383058 .3959961 .34883119 .37298585 .34083558 .29699708 .28683473 .25898744 .27383424 .25898744 .31384278 .2829895 .40283204 .2829895 .4278412 .2829895 .45283509 .2639923 .46484376 .24598694 .46484376 .22799683 .46484376 .20999146 .45283509 .20999146 .4278412 .20999146 .40283204 .23799134 .31384278 .23799134 .27383424 .19999695 .28683473 .12199402 .33683778 .09899902 .34483338 .051986696 .35983277 .027999878 .29083253 .07598877 .2748413Z"/>
<path id="font_3_2753" d="M.08999634 .32141114 .032989503 .072280887C.027999878 .052261354 .019989014 .027252198 .019989014 .017242432 .019989014 .0012359619 .0289917-.009765625 .06098938-.009765625 .09899902-.009765625 .09700012 .03425598 .10699463 .072280887L.14698792 .23336792C.22499085 .34643556 .2809906 .3794403 .31298829 .3794403 .33299256 .3794403 .33898927 .37243653 .33898927 .3424225 .33898927 .33041383 .33799745 .30641175 .33099366 .27539063L.2829895 .072280887C.27799989 .052261354 .269989 .027252198 .269989 .017242432 .269989 .0012359619 .2789917-.009765625 .31098939-.009765625 .34899903-.009765625 .34799195 .03425598 .35699464 .072280887L.394989 .22937012C.47999574 .34843446 .5189972 .3794403 .5509949 .3794403 .56999209 .3794403 .5799866 .37243653 .5799866 .3424225 .5799866 .3314209 .57899478 .30239869 .57099917 .27139283L.5319977 .11430359C.5219879 .073272708 .5139923 .03225708 .5139923 .023239136 .5139923 .0032348633 .5319977-.009765625 .54599-.009765625 .6049957-.009765625 .6599884 .019241333 .69400027 .10128784 .69200137 .11026001 .68499758 .11526489 .6719971 .11526489 .647995 .07723999 .6199951 .050231935 .60198977 .050231935 .5970001 .050231935 .59498599 .056228639 .59498599 .06123352 .59498599 .06523132 .5970001 .09025574 .59999087 .101257327L.6469879 .27938844C.6529999 .30239869 .6569977 .3334198 .6569977 .35243226 .6569977 .41545106 .6269989 .43945313 .59599307 .43945313 .5249939 .43945313 .46998597 .3784485 .4119873 .30540467 .4149933 .32141114 .41600038 .33943177 .41600038 .35243226 .41600038 .42243959 .38598634 .43945313 .35798646 .43945313 .28599549 .43945313 .22099304 .3864441 .1619873 .31040956L.1599884 .31141664 .1619873 .3204193C.17199707 .35865785 .18399048 .39759828 .18399048 .41456605 .18399048 .4285431 .1769867 .43554688 .1639862 .43554688 .13198853 .43554688 .08699036 .4285431 .039993287 .42256166 .032989503 .41453553 .034988405 .40353395 .040985109 .3945465L.08099365 .39154054C.09298706 .3905487 .09899902 .38156129 .09899902 .37158204 .09899902 .36343385 .09599304 .34942628 .08999634 .32141114Z"/>
<path id="font_2_37" d="M.1749878 .6454315C.14099121 .6454315 .09098816 .6484375 .09098816 .6484375L.08898926 .6454315C.09700012 .5884247 .100997928 .5203705 .100997928 .44532777V.20014954C.100997928 .12509156 .09700012 .05404663 .08898926 .000045776369L.08999634-.002960205C.08999634-.002960205 .13999939 .000045776369 .1749878 .000045776369 .25299073 .000045776369 .2869873-.001953125 .37399293-.001953125 .5149994-.001953125 .70899966 .072052 .70899966 .3182373 .70899966 .5153656 .5479889 .6484375 .35598756 .6484375 .2849884 .6484375 .24598694 .6454315 .1749878 .6454315M.24499512 .10107422V.5453949C.24499512 .5804138 .2689972 .59542849 .31799317 .59542849 .5339966 .59542849 .5479889 .44831849 .5479889 .29421998 .5479889 .09207153 .48399354 .05104065 .34298707 .05104065 .2669983 .05104065 .24499512 .06904602 .24499512 .10107422Z"/>
<path id="font_2_56" d="M.7350006 .17922974C.6199951 .4543457 .58399966 .6154175 .57398989 .6484375 .5569916 .6454315 .49499513 .6454315 .47799684 .6454315 .46099855 .6454315 .4139862 .6454315 .39698792 .6484375 .4189911 .6034088 .45498658 .51338198 .49699403 .40733338 .46099855 .31829835 .41999818 .22625733 .38598634 .1452179 .25698854 .44334413 .19799805 .6144104 .18798828 .6484375 .17098999 .6454315 .13398743 .6454315 .116989139 .6454315 .099990848 .6454315 .032989503 .6454315 .015991211 .6484375 .06599426 .5473938 .20799256 .21224976 .2999878-.0068359377H.3899994L.5339966 .31228639C.57598879 .20324707 .621994 .08718872 .6609955-.0068359377H.7299957C.82598879 .21525574 .923996 .42733766 1.0249939 .6484375 1.0130005 .6454315 .98098757 .6454315 .9700012 .6454315 .95899966 .6454315 .93099978 .6454315 .9189911 .6484375 .8880005 .5313873 .80400088 .3383026 .7350006 .17922974Z"/>
<path id="font_2_45" d="M.24699402 .21009827V.44528199C.24699402 .52033999 .24899292 .59239199 .25698854 .6454315L.2559967 .6484375C.2559967 .6484375 .20799256 .6454315 .17298889 .6454315 .13899231 .6454315 .09399414 .6484375 .09399414 .6484375L.09199524 .6454315C.099990848 .5883789 .102996829 .52033999 .102996829 .44528199V.2000885C.102996829 .12513733 .100997928 .054092409 .09298706 .000061035159L.09399414-.0029296876C.09399414-.0030059815 .14299011 0 .1769867 0H.48098756C.5019989 0 .5249939-.0010070801 .54100039-.0030059815L.54299929 0C.5419922 .01399231 .54100039 .03199768 .54100039 .041992189 .54100039 .051986696 .5419922 .09100342 .54299929 .09899902L.54100039 .103012088C.54100039 .103012088 .3889923 .08099365 .25498963 .08099365 .24798584 .10501099 .24699402 .19308472 .24699402 .21009827Z"/>
</defs>
<path transform="matrix(1,0,0,-1,35.73093,277.78407)" d="M118.10881 137.48403 152.47396 114.80301 152.4771 160.16327Z" fill="#d56b6b" fill-opacity=".46"/>
<use data-text="A" xlink:href="#font_1_34" transform="matrix(7.970112,0,0,-7.970112,82.56081,14.862122)" fill="#667482"/>
<use data-text="n" xlink:href="#font_1_79" transform="matrix(7.970112,0,0,-7.970112,89.56654,14.862122)" fill="#667482"/>
<use data-text="e" xlink:href="#font_1_70" transform="matrix(7.970112,0,0,-7.970112,93.86243,14.862122)" fill="#667482"/>
<use data-text="g" xlink:href="#font_1_72" transform="matrix(7.970112,0,0,-7.970112,97.47289,14.862122)" fill="#667482"/>
<use data-text="a" xlink:href="#font_1_66" transform="matrix(7.970112,0,0,-7.970112,101.449977,14.862122)" fill="#667482"/>
<use data-text="t" xlink:href="#font_1_85" transform="matrix(7.970112,0,0,-7.970112,105.2836,14.862122)" fill="#667482"/>
<use data-text="i" xlink:href="#font_1_74" transform="matrix(7.970112,0,0,-7.970112,107.99344,14.862122)" fill="#667482"/>
<use data-text="v" xlink:href="#font_1_87" transform="matrix(7.970112,0,0,-7.970112,110.06567,14.862122)" fill="#667482"/>
<use data-text="e" xlink:href="#font_1_70" transform="matrix(7.970112,0,0,-7.970112,113.69207,14.862122)" fill="#667482"/>
<use data-text="e" xlink:href="#font_1_70" transform="matrix(7.970112,0,0,-7.970112,119.28709,14.862122)" fill="#667482"/>
<use data-text="x" xlink:href="#font_1_89" transform="matrix(7.970112,0,0,-7.970112,122.849727,14.862122)" fill="#667482"/>
<use data-text="t" xlink:href="#font_1_85" transform="matrix(7.970112,0,0,-7.970112,126.47613,14.862122)" fill="#667482"/>
<use data-text="e" xlink:href="#font_1_70" transform="matrix(7.970112,0,0,-7.970112,129.18598,14.862122)" fill="#667482"/>
<use data-text="r" xlink:href="#font_1_83" transform="matrix(7.970112,0,0,-7.970112,132.79644,14.862122)" fill="#667482"/>
<use data-text="n" xlink:href="#font_1_79" transform="matrix(7.970112,0,0,-7.970112,135.62583,14.862122)" fill="#667482"/>
<use data-text="a" xlink:href="#font_1_66" transform="matrix(7.970112,0,0,-7.970112,139.9217,14.862122)" fill="#667482"/>
<use data-text="l" xlink:href="#font_1_77" transform="matrix(7.970112,0,0,-7.970112,143.75533,14.862122)" fill="#667482"/>
<use data-text="i" xlink:href="#font_1_74" transform="matrix(7.970112,0,0,-7.970112,145.7638,14.862122)" fill="#667482"/>
<use data-text="t" xlink:href="#font_1_85" transform="matrix(7.970112,0,0,-7.970112,147.83603,14.862122)" fill="#667482"/>
<use data-text="y" xlink:href="#font_1_90" transform="matrix(7.970112,0,0,-7.970112,150.54587,14.862122)" fill="#667482"/>
<use data-text="c" xlink:href="#font_1_68" transform="matrix(7.970112,0,0,-7.970112,156.5633,14.862122)" fill="#667482"/>
<use data-text="a" xlink:href="#font_1_66" transform="matrix(7.970112,0,0,-7.970112,159.98249,14.862122)" fill="#667482"/>
<use data-text="u" xlink:href="#font_1_86" transform="matrix(7.970112,0,0,-7.970112,163.8161,14.862122)" fill="#667482"/>
<use data-text="s" xlink:href="#font_1_84" transform="matrix(7.970112,0,0,-7.970112,168.09606,14.862122)" fill="#667482"/>
<use data-text="e" xlink:href="#font_1_70" transform="matrix(7.970112,0,0,-7.970112,171.25223,14.862122)" fill="#667482"/>
<use data-text="s" xlink:href="#font_1_84" transform="matrix(7.970112,0,0,-7.970112,174.86269,14.862122)" fill="#667482"/>
<use data-text="t" xlink:href="#font_1_85" transform="matrix(7.970112,0,0,-7.970112,180.01139,14.862122)" fill="#667482"/>
<use data-text="h" xlink:href="#font_1_73" transform="matrix(7.970112,0,0,-7.970112,182.72122,14.862122)" fill="#667482"/>
<use data-text="e" xlink:href="#font_1_70" transform="matrix(7.970112,0,0,-7.970112,187.0968,14.862122)" fill="#667482"/>
<use data-text="m" xlink:href="#font_1_78" transform="matrix(7.970112,0,0,-7.970112,192.6998,14.862122)" fill="#667482"/>
<use data-text="a" xlink:href="#font_1_66" transform="matrix(7.970112,0,0,-7.970112,199.13169,14.862122)" fill="#667482"/>
<use data-text="r" xlink:href="#font_1_83" transform="matrix(7.970112,0,0,-7.970112,202.9653,14.862122)" fill="#667482"/>
<use data-text="k" xlink:href="#font_1_76" transform="matrix(7.970112,0,0,-7.970112,205.7947,14.862122)" fill="#667482"/>
<use data-text="e" xlink:href="#font_1_70" transform="matrix(7.970112,0,0,-7.970112,209.80365,14.862122)" fill="#667482"/>
<use data-text="t" xlink:href="#font_1_85" transform="matrix(7.970112,0,0,-7.970112,213.41413,14.862122)" fill="#667482"/>
<use data-text="t" xlink:href="#font_1_85" transform="matrix(7.970112,0,0,-7.970112,218.11649,14.862122)" fill="#667482"/>
<use data-text="o" xlink:href="#font_1_80" transform="matrix(7.970112,0,0,-7.970112,220.82633,14.862122)" fill="#667482"/>
<use data-text="p" xlink:href="#font_1_81" transform="matrix(7.970112,0,0,-7.970112,226.80391,14.862122)" fill="#667482"/>
<use data-text="r" xlink:href="#font_1_83" transform="matrix(7.970112,0,0,-7.970112,230.97228,14.862122)" fill="#667482"/>
<use data-text="o" xlink:href="#font_1_80" transform="matrix(7.970112,0,0,-7.970112,233.74588,14.862122)" fill="#667482"/>
<use data-text="d" xlink:href="#font_1_69" transform="matrix(7.970112,0,0,-7.970112,237.77875,14.862122)" fill="#667482"/>
<use data-text="u" xlink:href="#font_1_86" transform="matrix(7.970112,0,0,-7.970112,242.0029,14.862122)" fill="#667482"/>
<use data-text="c" xlink:href="#font_1_68" transform="matrix(7.970112,0,0,-7.970112,246.28287,14.862122)" fill="#667482"/>
<use data-text="e" xlink:href="#font_1_70" transform="matrix(7.970112,0,0,-7.970112,249.70204,14.862122)" fill="#667482"/>
<use data-text="t" xlink:href="#font_1_85" transform="matrix(7.970112,0,0,-7.970112,255.30503,14.862122)" fill="#667482"/>
<use data-text="o" xlink:href="#font_1_80" transform="matrix(7.970112,0,0,-7.970112,258.01487,14.862122)" fill="#667482"/>
<use data-text="o" xlink:href="#font_1_80" transform="matrix(7.970112,0,0,-7.970112,262.05574,14.862122)" fill="#667482"/>
<use data-text="m" xlink:href="#font_1_78" transform="matrix(7.970112,0,0,-7.970112,268.0333,14.862122)" fill="#667482"/>
<use data-text="u" xlink:href="#font_1_86" transform="matrix(7.970112,0,0,-7.970112,274.46519,14.862122)" fill="#667482"/>
<use data-text="c" xlink:href="#font_1_68" transform="matrix(7.970112,0,0,-7.970112,278.74513,14.862122)" fill="#667482"/>
<use data-text="h" xlink:href="#font_1_73" transform="matrix(7.970112,0,0,-7.970112,282.1643,14.862122)" fill="#667482"/>
<path transform="matrix(1,0,0,-1,35.73093,277.78407)" stroke-width=".79701" stroke-linecap="round" stroke-linejoin="round" fill="none" stroke="#26333f" d="M0 0H310.22898"/>
<path transform="matrix(1,0,0,-1,345.9599,277.78407)" d="M4.03964 0C3.54356 .11404 1.36292 .7603 0 1.4636V-1.4636C1.36292-.7603 3.54356-.11404 4.03964 0Z" fill="#26333f"/>
<path transform="matrix(1,0,0,-1,345.9599,277.78407)" stroke-width=".79701" stroke-linecap="round" stroke-miterlimit="10" stroke-linejoin="miter" fill="none" stroke="#26333f" d="M4.03964 0C3.54356 .11404 1.36292 .7603 0 1.4636V-1.4636C1.36292-.7603 3.54356-.11404 4.03964 0Z"/>
<use data-text="Q" xlink:href="#font_2_2245" transform="matrix(8.966376,0,0,-8.966376,311.62983,289.557)" fill="#26333f"/>
<use data-text="u" xlink:href="#font_2_86" transform="matrix(8.966376,0,0,-8.966376,318.79396,289.557)" fill="#26333f"/>
<use data-text="a" xlink:href="#font_2_66" transform="matrix(8.966376,0,0,-8.966376,324.09309,289.557)" fill="#26333f"/>
<use data-text="n" xlink:href="#font_2_79" transform="matrix(8.966376,0,0,-8.966376,328.71974,289.557)" fill="#26333f"/>
<use data-text="t" xlink:href="#font_2_85" transform="matrix(8.966376,0,0,-8.966376,334.09959,289.557)" fill="#26333f"/>
<use data-text="i" xlink:href="#font_2_74" transform="matrix(8.966376,0,0,-8.966376,337.27366,289.557)" fill="#26333f"/>
<use data-text="t" xlink:href="#font_2_85" transform="matrix(8.966376,0,0,-8.966376,340.07118,289.557)" fill="#26333f"/>
<use data-text="y" xlink:href="#font_2_90" transform="matrix(8.966376,0,0,-8.966376,343.24528,289.557)" fill="#26333f"/>
<path transform="matrix(1,0,0,-1,35.73093,277.78407)" stroke-width=".79701" stroke-linecap="round" stroke-linejoin="round" fill="none" stroke="#26333f" d="M0 0V246.44864"/>
<path transform="matrix(0,-1,-1,-0,35.73093,31.335419)" d="M4.03964 0C3.54356 .11404 1.36292 .7603 0 1.4636V-1.4636C1.36292-.7603 3.54356-.11404 4.03964 0Z" fill="#26333f"/>
<path transform="matrix(0,-1,-1,-0,35.73093,31.335419)" stroke-width=".79701" stroke-linecap="round" stroke-miterlimit="10" stroke-linejoin="miter" fill="none" stroke="#26333f" d="M4.03964 0C3.54356 .11404 1.36292 .7603 0 1.4636V-1.4636C1.36292-.7603 3.54356-.11404 4.03964 0Z"/>
<use data-text="P" xlink:href="#font_2_49" transform="matrix(8.966376,0,0,-8.966376,9.29776,21.688904)" fill="#26333f"/>
<use data-text="r" xlink:href="#font_2_83" transform="matrix(8.966376,0,0,-8.966376,14.659653,21.688904)" fill="#26333f"/>
<use data-text="i" xlink:href="#font_2_74" transform="matrix(8.966376,0,0,-8.966376,18.434498,21.688904)" fill="#26333f"/>
<use data-text="c" xlink:href="#font_2_68" transform="matrix(8.966376,0,0,-8.966376,21.232008,21.688904)" fill="#26333f"/>
<use data-text="e" xlink:href="#font_2_70" transform="matrix(8.966376,0,0,-8.966376,25.464138,21.688904)" fill="#26333f"/>
<use data-text="0" xlink:href="#font_3_17" transform="matrix(8.966376,0,0,-8.966376,27.04543,287.7697)" fill="#26333f"/>
<path transform="matrix(1,0,0,-1,35.73093,277.78407)" stroke-width=".54794" stroke-linecap="round" stroke-dasharray="2.98883,1.99255" stroke-linejoin="round" fill="none" stroke="#aab5bf" d="M118.10881 137.48403V0"/>
<path transform="matrix(1,0,0,-1,35.73093,277.78407)" stroke-width=".49814" stroke-linecap="round" stroke-dasharray=".49814,.99628" stroke-linejoin="round" fill="none" stroke="#aab5bf" d="M152.47396 114.80301V0"/>
<path transform="matrix(1,0,0,-1,35.73093,277.78407)" stroke-width="1.54422" stroke-linecap="round" stroke-linejoin="round" fill="none" stroke="#006fb9" d="M0 215.43592 283.4681 28.3468"/>
<use data-text="D" xlink:href="#font_1_37" transform="matrix(8.966376,0,0,-8.966376,329.26936,252.52175)" fill="#26333f"/>
<use data-text="e" xlink:href="#font_1_70" transform="matrix(8.966376,0,0,-8.966376,335.63548,252.52175)" fill="#26333f"/>
<use data-text="m" xlink:href="#font_1_78" transform="matrix(8.966376,0,0,-8.966376,339.69725,252.52175)" fill="#26333f"/>
<use data-text="a" xlink:href="#font_1_66" transform="matrix(8.966376,0,0,-8.966376,346.9331,252.52175)" fill="#26333f"/>
<use data-text="n" xlink:href="#font_1_79" transform="matrix(8.966376,0,0,-8.966376,351.24595,252.52175)" fill="#26333f"/>
<use data-text="d" xlink:href="#font_1_69" transform="matrix(8.966376,0,0,-8.966376,356.07884,252.52175)" fill="#26333f"/>
<path transform="matrix(1,0,0,-1,35.73093,277.78407)" stroke-width="1.54422" stroke-linecap="round" stroke-linejoin="round" fill="none" stroke="#c6532d" d="M0 14.17339 283.4681 201.26251"/>
<use data-text="S" xlink:href="#font_1_52" transform="matrix(8.966376,0,0,-8.966376,329.26936,78.58833)" fill="#26333f"/>
<use data-text="u" xlink:href="#font_1_86" transform="matrix(8.966376,0,0,-8.966376,333.80635,78.58833)" fill="#26333f"/>
<use data-text="p" xlink:href="#font_1_81" transform="matrix(8.966376,0,0,-8.966376,338.62129,78.58833)" fill="#26333f"/>
<use data-text="p" xlink:href="#font_1_81" transform="matrix(8.966376,0,0,-8.966376,343.3107,78.58833)" fill="#26333f"/>
<use data-text="l" xlink:href="#font_1_77" transform="matrix(8.966376,0,0,-8.966376,348.00013,78.58833)" fill="#26333f"/>
<use data-text="y" xlink:href="#font_1_90" transform="matrix(8.966376,0,0,-8.966376,350.25965,78.58833)" fill="#26333f"/>
<path transform="matrix(1,0,0,-1,35.73093,277.78407)" stroke-width="1.54422" stroke-linecap="round" stroke-linejoin="round" fill="none" stroke="#8b4a67" d="M0 59.52846 274.96397 241.00453"/>
<use data-text="S" xlink:href="#font_1_52" transform="matrix(8.966376,0,0,-8.966376,320.76524,39.864015)" fill="#26333f"/>
<use data-text="o" xlink:href="#font_1_80" transform="matrix(8.966376,0,0,-8.966376,325.30223,39.864015)" fill="#26333f"/>
<use data-text="c" xlink:href="#font_1_68" transform="matrix(8.966376,0,0,-8.966376,329.84819,39.864015)" fill="#26333f"/>
<use data-text="i" xlink:href="#font_1_74" transform="matrix(8.966376,0,0,-8.966376,333.69477,39.864015)" fill="#26333f"/>
<use data-text="a" xlink:href="#font_1_66" transform="matrix(8.966376,0,0,-8.966376,336.026,39.864015)" fill="#26333f"/>
<use data-text="l" xlink:href="#font_1_77" transform="matrix(8.966376,0,0,-8.966376,340.33885,39.864015)" fill="#26333f"/>
<use data-text="c" xlink:href="#font_1_68" transform="matrix(8.966376,0,0,-8.966376,344.83998,39.864015)" fill="#26333f"/>
<use data-text="o" xlink:href="#font_1_80" transform="matrix(8.966376,0,0,-8.966376,348.68653,39.864015)" fill="#26333f"/>
<use data-text="s" xlink:href="#font_1_84" transform="matrix(8.966376,0,0,-8.966376,353.1697,39.864015)" fill="#26333f"/>
<use data-text="t" xlink:href="#font_1_85" transform="matrix(8.966376,0,0,-8.966376,356.7204,39.864015)" fill="#26333f"/>
<use data-text="&#x1d444;" xlink:href="#font_3_2732" transform="matrix(8.966376,0,0,-8.966376,149.15674,289.43885)" fill="#26333f"/>
<use data-text="&#x2217;" xlink:href="#font_3_2093" transform="matrix(5.977584,0,0,-5.977584,155.06558,286.07606)" fill="#26333f"/>
<use data-text="&#x1d444;" xlink:href="#font_3_2732" transform="matrix(8.966376,0,0,-8.966376,183.12735,289.19636)" fill="#667482"/>
<use data-text="&#x1d45a;" xlink:href="#font_3_2753" transform="matrix(5.977584,0,0,-5.977584,188.51615,291.0795)" fill="#667482"/>
<path transform="matrix(1,0,0,-1,35.73093,277.78407)" d="M120.20099 137.48403C120.20099 138.63951 119.2643 139.5762 118.10881 139.5762 116.95332 139.5762 116.01665 138.63951 116.01665 137.48403 116.01665 136.32854 116.95332 135.39185 118.10881 135.39185 119.2643 135.39185 120.20099 136.32854 120.20099 137.48403ZM118.10881 137.48403" fill="#26333f"/>
<path transform="matrix(1,0,0,-1,35.73093,277.78407)" d="M154.7654 114.80301C154.7654 116.06854 153.73949 117.09445 152.47396 117.09445 151.20842 117.09445 150.18251 116.06854 150.18251 114.80301 150.18251 113.53748 151.20842 112.51157 152.47396 112.51157 153.73949 112.51157 154.7654 113.53748 154.7654 114.80301ZM152.47396 114.80301" fill="#ffffff"/>
<path transform="matrix(1,0,0,-1,35.73093,277.78407)" stroke-width=".74721" stroke-linecap="round" stroke-linejoin="round" fill="none" stroke="#7e8993" d="M154.7654 114.80301C154.7654 116.06854 153.73949 117.09445 152.47396 117.09445 151.20842 117.09445 150.18251 116.06854 150.18251 114.80301 150.18251 113.53748 151.20842 112.51157 152.47396 112.51157 153.73949 112.51157 154.7654 113.53748 154.7654 114.80301ZM152.47396 114.80301"/>
<use data-text="D" xlink:href="#font_2_37" transform="matrix(8.966376,0,0,-8.966376,160.87755,143.17649)" fill="#26333f"/>
<use data-text="W" xlink:href="#font_2_56" transform="matrix(8.966376,0,0,-8.966376,168.03272,143.17649)" fill="#26333f"/>
<use data-text="L" xlink:href="#font_2_45" transform="matrix(8.966376,0,0,-8.966376,177.38466,143.17649)" fill="#26333f"/>
</svg>
